<?xml version="1.0" encoding="UTF-8" standalone="no"?>
<svg
   xmlns:dc="http://purl.org/dc/elements/1.1/"
   xmlns:cc="http://creativecommons.org/ns#"
   xmlns:rdf="http://www.w3.org/1999/02/22-rdf-syntax-ns#"
   xmlns:svg="http://www.w3.org/2000/svg"
   xmlns="http://www.w3.org/2000/svg"
   viewBox="0 0 406.66666 152"
   height="152"
   width="406.66666"
   id="svg2"
   version="1.1">
  <metadata
     id="metadata8">
    <rdf:RDF>
      <cc:Work
         rdf:about="">
        <dc:format>image/svg+xml</dc:format>
        <dc:type
           rdf:resource="http://purl.org/dc/dcmitype/StillImage" />
        <dc:title></dc:title>
      </cc:Work>
    </rdf:RDF>
  </metadata>
  <defs
     id="defs6" />
  <path
     id="path4520"
     d="m 110.10706,163.14843 c -8.88003,-0.84993 -12.87794,-3.24633 -15.35326,-9.20296 -2.27133,-5.46574 -2.40313,-6.56108 -3.12865,-26 -0.99159,-26.56776 -5.62272,-43.069304 -14.298487,-50.948005 -6.088446,-5.529087 -7.189358,-6.004584 -10.187412,-4.400074 -2.008586,1.074963 -2.694222,1.034195 -2.694222,-0.160194 0,-0.881154 -2.4,0.997569 -5.333334,4.174941 -5.760949,6.240231 -6.733067,9.333333 -2.933333,9.333333 1.32,0 3.12,0.72 4,1.6 0.88,0.88 1.6,1.146079 1.6,0.591286 0,-0.554794 1.65,-0.185939 3.666667,0.819676 14.00495,6.9836 16.999999,8.82804 16.999999,10.469102 0,3.874535 -6.994953,2.612445 -18.446285,-3.328234 -16.222425,-8.415806 -18.565283,-8.584943 -29.293014,-2.114747 -4.829716,2.912939 -9.714166,5.296251 -10.854334,5.296251 -1.140167,0 -2.073032,0.669946 -2.073032,1.488765 0,0.86419 -1.381499,1.22468 -3.292984,0.85928 -1.81114,-0.34622 -2.973112,-0.11193 -2.582158,0.52065 0.685743,1.10955 -1.332061,2.31454 -5.020737,2.99826 -0.9739333,0.18053 -3.9246683,1.26354 -6.5571883,2.40669 -2.632521,1.14315 -7.41513,1.99923 -10.628022,1.90241 -4.7348407,-0.1427 -6.1429017,-0.78064 -7.4317847,-3.36707 -2.11415,-4.24252 -1.17905,-6.176801 4.2260367,-8.741684 2.478792,-1.176264 4.839262,-2.676444 5.245489,-3.333732 0.406227,-0.657289 2.681715,-1.571511 5.056639,-2.031601 7.537145,-1.460163 15.6513753,-3.922403 15.6513753,-4.749364 0,-0.439207 5.44868,-0.836898 12.108176,-0.883758 6.88718,-0.04847 12.738532,-0.715554 13.570053,-1.547076 1.06028,-1.06028 0.557051,-3.30097 -1.831838,-8.156474 -1.914867,-3.892036 -3.227562,-8.788592 -3.135691,-11.696614 0.399539,-12.646813 0.783125,-14.671453 3.2893,-17.361516 1.466667,-1.574282 2.666667,-3.460146 2.666667,-4.190809 0,-3.840032 13.588459,-13.673964 22.472123,-16.263016 3.193002,-0.930567 6.086738,-2.424943 6.430523,-3.320836 0.343787,-0.895892 3.281331,-2.413196 6.527876,-3.371787 3.246546,-0.958591 5.90281,-2.094598 5.90281,-2.524461 0,-0.429864 2.429442,-0.924917 5.398752,-1.10012 2.96931,-0.175202 7.01931,-0.949472 9,-1.720599 4.45476,-1.73434 24.77031,-1.55863 25.37902,0.219504 0.24445,0.71406 1.762,1.298291 3.37232,1.298291 1.61033,0 3.79279,1.2 4.84991,2.666667 1.05712,1.466666 3.22537,2.666666 4.81836,2.666666 3.05722,0 5.2909,3.36307 3.12341,4.702656 -0.70131,0.433431 -1.27511,2.031826 -1.27511,3.551988 0,3.720252 -5.08485,11.745356 -7.44208,11.745356 -1.04018,0 -1.89125,0.62 -1.89125,1.377778 0,4.142532 -17.62016,16.371878 -24,16.657297 -1.1,0.04921 -1.87051,0.749916 -1.71225,1.557121 0.16554,0.844323 -0.82846,1.175748 -2.34043,0.780359 -1.44551,-0.378007 -3.37499,-0.09189 -4.28775,0.635804 -0.91276,0.727699 -3.0461,1.096703 -4.74074,0.820009 -1.69465,-0.276693 -2.76519,0.0081 -2.37898,0.633098 0.3862,0.624896 -1.22727,1.148577 -3.5855,1.163736 -2.358223,0.01516 -6.019787,0.105693 -8.136804,0.20118 l -3.849123,0.173618 6.182456,6.609546 c 3.400351,3.635249 6.182451,7.535249 6.182451,8.666666 0,1.131418 0.51047,2.057122 1.13437,2.057122 2.5739,0 9.5323,-3.01514 9.5323,-4.130434 0,-0.661594 0.9,-1.2029 2,-1.2029 1.1,0 2,-0.472317 2,-1.049594 0,-0.577276 1.35,-1.139146 3,-1.248596 11.49626,-0.762595 17.22527,-2.084243 17.95196,-4.141408 1.18499,-3.354556 4.56721,-6.893735 6.58803,-6.893735 1.10372,0 1.79334,1.538189 1.79334,4 0,2.773697 0.65243,4 2.12812,4 3.78811,0 17.14423,-4.2575 19.3102,-6.155469 1.15775,-1.014492 3.05442,-1.844531 4.21482,-1.844531 1.1604,0 3.62441,-1.8 5.4756,-4 1.85117,-2.2 4.3045,-4 5.45185,-4 1.14735,0 2.08608,-0.92878 2.08608,-2.063955 0,-3.156786 6.88287,-8.513265 11,-8.560577 2.76373,-0.03176 3.66667,-0.698813 3.66667,-2.708801 0,-1.466667 0.6,-2.741667 1.33333,-2.833334 2.55297,-0.319122 3.35932,-0.625641 7.60045,-2.889221 4.63315,-2.472799 13.73288,-3.098391 13.73288,-0.944112 0,2.451173 -10.63089,12 -13.35982,12 -2.89754,0 -11.34163,4.891931 -15.33202,8.882312 -1.34805,1.348061 -2.79388,2.294616 -3.21292,2.103455 -1.67957,-0.766188 -8.18017,2.350789 -8.9192,4.276678 -0.43384,1.130564 -1.23996,1.776743 -1.79136,1.435952 -1.31209,-0.810916 -14.01304,12.737436 -16.56249,17.667538 -1.08883,2.105557 -2.9068,4.597721 -4.03993,5.538141 -2.5615,2.125841 -6.08447,9.015939 -5.1088,9.991593 0.73406,0.73407 2.97193,-1.585438 7.5133,-7.787412 1.38606,-1.892874 3.63606,-3.44159 5,-3.44159 1.56916,0 2.47991,-0.954107 2.47991,-2.597971 0,-1.428884 1.54147,-4.261248 3.42549,-6.294141 1.88403,-2.032894 3.76152,-5.376292 4.17222,-7.429775 0.97505,-4.875213 2.15232,-5.45792 5.35482,-2.650437 2.83559,2.485805 2.63983,5.63899 -0.35006,5.63899 -1.0131,0 -2.55943,1.35 -3.43632,3 -0.8769,1.65 -5.248,7.263162 -9.71358,12.473691 -11.44057,13.349088 -12.7859,15.073238 -12.7859,16.386118 0,1.64528 -6.57123,2.70665 -7.49578,1.21069 -0.421,-0.68119 0.2521,-2.36292 1.49578,-3.73716 1.24368,-1.37425 1.89266,-3.09498 1.4422,-3.823856 -0.45047,-0.728872 -0.19946,-1.708139 0.5578,-2.176149 0.75725,-0.468011 1.05725,-1.368011 0.66666,-2 -0.39058,-0.63199 -0.0905,-1.53199 0.66667,-2 0.75725,-0.468011 1.08837,-1.317655 0.73583,-1.888098 -0.35256,-0.570444 1.13765,-2.741238 3.31158,-4.82399 2.17392,-2.082752 3.95259,-4.874567 3.95259,-6.204034 0,-1.329466 0.45,-2.421005 1,-2.425642 0.55,-0.0047 2.00035,-1.766754 3.223,-3.915816 1.76041,-3.094278 1.82977,-3.75649 0.33333,-3.182252 -1.03932,0.398825 -1.88966,1.260942 -1.88966,1.915817 0,0.654875 -0.45,1.063211 -1,0.907412 -0.55,-0.155799 -2.35,0.465312 -4,1.380245 -3.27,1.813228 -3.9841,4.996004 -1.33334,5.942707 0.91667,0.327381 1.18938,1.104668 0.60603,1.727304 -0.58335,0.622637 -2.15948,0.445825 -3.50252,-0.392916 -1.34304,-0.83874 -4.55141,-1.920733 -7.12973,-2.404428 -4.17327,-0.782908 -5.14852,-0.373213 -8.8844,3.732247 -2.30811,2.53643 -5.90391,7.303925 -7.99069,10.594432 -5.40106,8.516587 -9.29258,11.872127 -12.05434,10.394077 -3.55935,-1.9049 -2.1858,-11.520227 2.62787,-18.396047 2.19695,-3.138106 3.99445,-6.02854 3.99445,-6.423184 0,-1.109578 -5.40867,0.695936 -11.66667,3.894548 -4.94586,2.527952 -5.66666,3.459015 -5.66666,7.31965 0,2.432804 0.70979,5.733833 1.5773,7.335622 0.86752,1.601791 2.03702,11.312351 2.59889,21.579011 1.16701,21.32428 1.41587,23.35741 3.88082,31.70567 1.59668,5.40761 2.33477,6.20641 6.53809,7.07584 2.60603,0.53903 5.3724,1.11361 6.14749,1.27685 0.7751,0.16324 3.72743,-0.83078 6.56075,-2.20893 2.83331,-1.37815 5.40392,-2.25327 5.71248,-1.94472 1.3855,1.38551 -1.4435,6.09529 -3.66122,6.09529 -1.35615,0 -2.66571,0.45023 -2.91016,1.0005 -0.24444,0.55028 -4.19653,0.64138 -8.78241,0.20246 z M 11.246038,101.41164 c 2.351448,-1.17306 5.00971,-2.132835 5.907249,-2.132835 0.89754,0 2.401485,-0.927306 3.342101,-2.060679 0.940616,-1.133373 2.514083,-1.752204 3.496593,-1.37518 0.98251,0.377025 1.786382,0.104331 1.786382,-0.605988 0,-0.710317 0.835806,-1.291487 1.857348,-1.291487 1.885449,0 4.082828,-3.837602 2.883884,-5.036546 -1.028192,-1.028191 -23.4078993,3.98636 -23.4078993,5.244934 0,0.61872 -0.45,1.060055 -1,0.980744 -2.079762,-0.299905 -7,1.840444 -7,3.045066 0,0.691082 -0.478648,0.960694 -1.063661,0.599136 -1.278824,-0.790358 -2.919544,0.296726 -5.603005,3.712355 -1.933228,2.4607 -1.724135,2.52078 6.262824,1.7995 4.544553,-0.41041 10.186736,-1.70597 12.5381843,-2.87902 z m 98.640352,-5.799502 c 2.00588,-3.887428 2.4238,-4.492863 6.58335,-9.537347 2.72918,-3.3098 3.50035,-6.795986 1.50331,-6.795986 -1.67854,0 -8.19469,6.310706 -8.19469,7.936334 0,0.76835 -0.5413,1.396999 -1.2029,1.396999 -1.11529,0 -4.13043,6.958401 -4.13043,9.532297 0,2.584815 3.68613,0.869363 5.44136,-2.532297 z M 33.520859,89.243523 c -0.410516,-0.410517 -1.156064,0.329483 -1.656772,1.644444 -0.72358,1.900264 -0.570428,2.053416 0.746393,0.746394 0.911224,-0.904446 1.320895,-1.980322 0.910379,-2.390838 z M 57.332007,73.718818 c 8.77859,-9.816696 11.051635,-11.773347 13.677124,-11.773347 1.849468,0 2.769231,-0.857032 2.769231,-2.580362 0,-1.738671 1.522227,-3.130807 4.666666,-4.267851 2.566667,-0.92812 4.666667,-2.166956 4.666667,-2.752971 0,-0.586016 0.75,-1.089866 1.666665,-1.11967 0.91667,-0.0298 3.744,-1.829803 6.28297,-4 2.53896,-2.170196 5.11515,-3.945812 5.72486,-3.945812 0.6097,0 2.6429,-1.422724 4.51821,-3.16161 1.87531,-1.738886 7.97239,-5.488886 13.54906,-8.333333 13.22125,-6.74365 14.68902,-8.075262 11.48414,-10.418734 -6.71196,-4.907906 -33.46633,-2.720775 -45.225905,3.697151 -1.466667,0.80045 -2.966667,1.528446 -3.333333,1.617767 -2.969983,0.7235 -6.892491,3.061816 -11.937873,7.116499 -3.265831,2.624558 -5.400655,3.88175 -4.744056,2.79376 1.055236,-1.748535 0.893248,-1.748596 -1.39546,-5.2e-4 -7.666956,5.85589 -15.998529,17.523578 -17.300725,24.228254 -1.50084,7.727444 3.24671,17.127432 8.650366,17.127432 1.375939,0 4.202566,-1.901993 6.281393,-4.226653 z M 95.62367,60.459863 c 3.01841,-0.817084 6.38802,-1.755813 7.48802,-2.086065 1.1,-0.330252 2.14301,-0.574889 2.31779,-0.543637 1.59656,0.285468 14.09729,-7.726088 18.12544,-11.616363 4.48723,-4.333643 8.89011,-10.706977 8.89011,-12.86878 0,-1.770009 -3.88382,-0.394081 -11,3.896991 -4.21667,2.542658 -7.66667,4.30026 -7.66667,3.90578 0,-0.39448 -1.74262,0.523621 -3.87249,2.040224 -2.12987,1.516602 -4.52987,2.757458 -5.33334,2.757458 -0.80346,0 -1.46084,0.6 -1.46084,1.333334 0,0.733333 -0.97962,1.333333 -2.17694,1.333333 -1.19731,0 -3.14731,1.054097 -4.33333,2.342437 -1.18601,1.28834 -3.95639,3.222527 -6.15639,4.298192 -2.2,1.075664 -5.43092,3.021568 -7.179814,4.32423 l -3.17981,2.368474 h 5.025114 c 2.76382,0 7.49473,-0.668524 10.51315,-1.485608 z m 103.98836,56.866267 c -0.41212,-1.07397 0.5067,-3.71659 2.04184,-5.87249 1.53513,-2.1559 2.79116,-4.21375 2.79116,-4.57299 0,-0.35924 1.88741,-2.66662 4.19425,-5.1275 l 4.19425,-4.474345 -3.86092,-0.380359 c -7.48554,-0.737441 -9.69609,-2.805632 -10.12897,-9.476677 l -0.39861,-6.142964 -6,-0.376068 c -13.313,-0.834432 -11.5996,-4.402906 3.34117,-6.958607 7.87876,-1.347705 9.99216,-2.192157 9.99216,-3.992572 0,-1.255848 1.35,-3.749869 3,-5.542269 1.65,-1.792402 4.60261,-5.630015 6.56137,-8.528031 6.7219,-9.945165 15.88147,-18.127101 26.20124,-23.404688 11.70803,-5.987545 19.5085,-6.928129 20.90726,-2.521007 0.86697,2.731598 -0.79336,5.459712 -9.66987,15.8886 -2.38333,2.800147 -4.33333,5.49378 -4.33333,5.985851 0,0.492071 -0.59096,1.619351 -1.31324,2.505065 -6.39902,7.846995 -8.11694,10.277059 -7.26531,10.277059 0.54552,0 -0.0941,1.2 -1.42145,2.666667 -2.80079,3.094834 -2.2247,3.347108 2.18092,0.955028 2.90894,-1.579444 7.13172,-5.117238 17.45274,-14.621695 2.18992,-2.016667 4.48174,-3.666667 5.09292,-3.666667 0.61118,0 3.88422,-2.4 7.27342,-5.333333 3.3892,-2.933333 6.58182,-5.333333 7.09472,-5.333333 0.51289,0 2.4443,-1.401804 4.29204,-3.115119 3.67126,-3.404192 10.61323,-5.765507 10.61323,-3.6101 0,0.729073 -4.49999,5.914057 -9.99999,11.522185 -5.5,5.60813 -10,10.640544 -10,11.183144 0,0.542599 -1.8,3.25155 -4,6.01989 -2.2,2.76834 -4,5.850842 -4,6.850006 0,2.555996 14.52754,2.425623 19.51425,-0.175125 7.73817,-4.035735 13.08969,-0.487064 6.96293,4.617219 -3.42922,2.85693 -2.78214,3.176096 5.52281,2.724092 2.56667,-0.139694 4.86667,-0.800483 5.11111,-1.468423 0.24445,-0.66794 1.26804,-1.214436 2.27467,-1.214436 1.00661,0 4.88301,-1.8 8.61422,-4 10.52184,-6.203896 14.79278,-5.346191 10.59494,2.127712 -2.52676,4.498691 -2.52576,4.538955 0.1126,4.538955 1.46409,0 3.83886,-0.734976 5.27728,-1.633279 2.09989,-1.311404 2.9503,-1.272855 4.31524,0.195605 1.05418,1.13415 1.10766,1.49668 0.14077,0.954358 -0.85755,-0.48099 -2.37183,-0.119014 -3.36508,0.804394 -1.77031,1.645831 -3.7446,2.392104 -7.74241,2.92661 -3.94455,0.527382 -9.47959,3.436969 -8.75835,4.603969 0.40449,0.654492 -0.9094,2.258513 -2.91977,3.564492 -2.01036,1.30598 -5.5307,4.221611 -7.82294,6.47918 -8.05244,7.930616 -12.4949,11.438006 -14.48739,11.438006 -2.51411,0 -2.52832,-1.51549 -0.0695,-7.400362 2.02978,-4.857975 2.04545,-4.915253 2.07833,-7.59964 0.0136,-1.111111 0.45125,-1 1.31292,0.333333 1.04516,1.617279 1.2964,1.425918 1.31292,-1 0.0107,-1.65 0.47041,-3.018854 1.02041,-3.0419 0.55,-0.02304 2.03699,-1.46865 3.3044,-3.212457 2.29867,-3.162661 2.29452,-3.169 -1.6645,-2.545048 -2.18291,0.344029 -5.37248,0.739636 -7.08795,0.879124 -1.94256,0.157953 -5.18318,2.768232 -8.59145,6.920281 -3.0098,3.666667 -6.68577,8.016667 -8.16878,9.666667 -1.48302,1.65 -2.33411,3.000002 -1.89131,3.000002 1.15795,0 -7.79841,5.96252 -10.52433,7.00637 -3.51524,1.3461 -3.9387,-0.92406 -0.80067,-4.29234 4.49656,-4.826488 11.75796,-14.632455 11.75796,-15.878224 0,-0.627615 1.79041,-3.172423 3.97871,-5.655129 6.01622,-6.825679 5.82396,-7.038482 -5.97871,-6.617148 -7.556,0.269734 -13.52087,3.769116 -12.99535,7.62392 0.75884,5.566205 -1.16893,13.812549 -3.229,13.812549 -1.42597,0 -1.77624,-0.718911 -1.13685,-2.333333 1.66853,-4.212983 1.88431,-6.931346 0.61257,-7.717319 -0.68825,-0.425367 -1.25137,-0.18084 -1.25137,0.543391 0,0.724232 -0.75,2.10998 -1.66667,3.07944 -0.91666,0.96946 -3.61666,4.033194 -6,6.8083 -3.4734,4.044353 -4.33333,4.527543 -4.33333,2.434884 0,-1.43592 1.39788,-4.306798 3.10641,-6.37973 4.17418,-5.064473 5.24983,-8.399826 3.42,-10.60463 -2.3262,-2.802904 -8.3239,-2.235778 -10.5654,0.999036 -2.26002,3.26156 -2.7041,3.727002 -11.44757,11.998356 -8.09605,7.658887 -12.51344,12.786947 -12.51344,14.526627 0,1.71407 -6.74135,9.31165 -8.26224,9.31165 -0.63513,0 -1.49197,-0.87871 -1.90409,-1.95268 z M 301.05377,89.411149 c 9.26051,-8.471519 12.18631,-12.799011 8.65335,-12.799011 -0.77251,0 -3.39936,1.59168 -5.83744,3.537067 -2.43807,1.945386 -4.87008,3.295386 -5.40446,3 -0.53437,-0.295387 -1.99524,1.562933 -3.24637,4.1296 -1.25112,2.566666 -2.8626,4.558154 -3.58105,4.425528 -0.71844,-0.132627 -1.4493,1.635938 -1.62411,3.930145 -0.17481,2.294205 -0.0253,3.902717 0.33216,3.574471 0.35749,-0.328246 5.17605,-4.737256 10.70792,-9.7978 z m -84.05113,2.39167 c 1.15999,-0.445125 2.10905,-1.74788 2.10905,-2.895012 0,-1.147132 0.99632,-3.186617 2.21406,-4.532189 1.21772,-1.345572 1.96772,-2.684149 1.66666,-2.974613 -0.81285,-0.784243 -5.09845,-1.11491 -12.21405,-0.942406 l -6.33333,0.153539 v 5.111111 c 0,2.811112 0.4,5.511112 0.88889,6 1.11099,1.110992 8.84348,1.16372 11.66872,0.07957 z m 9.94239,-20.024014 c 2.29166,-0.458334 4.16666,-1.658334 4.16666,-2.666667 0,-1.008333 0.49366,-1.833333 1.09699,-1.833333 0.60335,0 2.42384,-2.656744 4.04553,-5.903876 1.62171,-3.247132 4.4177,-7.297132 6.21331,-9 1.79563,-1.702868 3.27513,-3.846124 3.2878,-4.762791 0.0133,-0.916667 0.47304,-1.670767 1.02304,-1.675777 0.55,-0.0051 2.49921,-2.255011 4.33159,-5 1.83236,-2.74499 4.08236,-5.783747 5,-6.752795 0.91762,-0.969047 1.66841,-2.255249 1.66841,-2.858225 0,-1.667803 -10.86179,1.369457 -14.87249,4.158768 -1.94654,1.353749 -4.20928,2.461362 -5.02832,2.461362 -1.74855,0 -16.09919,13.623044 -16.09919,15.282942 0,0.622609 -1.41107,2.98865 -3.13572,5.25787 -3.09021,4.065988 -7.53095,11.963351 -7.53095,13.392975 0,0.99622 10.68906,0.928404 15.83334,-0.100453 z m 33.63645,-6.166667 c 2.10152,-2.383333 3.83053,-5.002419 3.84225,-5.820188 0.012,-0.817771 1.20164,-2.987424 2.6443,-4.821452 2.97648,-3.783987 2.24401,-5.582863 -1.46498,-3.597869 -1.37025,0.733333 -2.51172,0.862222 -2.5366,0.286421 -0.0249,-0.575801 -1.07488,1.126187 -2.33333,3.782195 -1.25845,2.656009 -2.60276,4.756009 -2.98736,4.666666 -0.95361,-0.221526 -6.88224,4.6567 -9.13065,7.512943 -1.67078,2.122439 -1.39615,2.324617 3.15774,2.324617 3.95444,0 5.77922,-0.897677 8.80863,-4.333333 z m -27.85524,44.535342 c -1.18223,-0.75006 0.13615,-1.85543 4.22316,-3.54084 3.29511,-1.35885 6.5564,-3.79891 7.32132,-5.47773 0.84601,-1.856791 2.43661,-2.947731 4.11365,-2.821404 2.33096,0.175587 1.80695,1.147453 -3.55241,6.588634 -6.19975,6.2944 -8.73101,7.39243 -12.10572,5.25134 z m 120.46041,-3.46262 c 1.22745,-1.87333 2.61273,-3.41126 3.07839,-3.41762 1.68784,-0.023 10.84665,-9.535387 10.84665,-11.265326 0,-1.340861 -1.14261,-1.517912 -4.66667,-0.723109 -2.56666,0.578877 -4.66666,0.79458 -4.66666,0.47934 0,-0.31524 -1.35,0.175418 -3,1.09035 -1.65,0.914934 -3.54502,1.504372 -4.21115,1.309864 -0.66613,-0.194509 -1.66815,0.385796 -2.22671,1.289566 -0.55856,0.903769 -1.98354,1.785285 -3.16664,1.958926 -1.18309,0.173642 -4.54954,1.565866 -7.48101,3.093829 -5.72289,2.98294 -11.24241,3.61093 -12.58888,1.43231 -0.45747,-0.74021 3.81083,-5.840207 9.48511,-11.333339 10.07144,-9.74991 10.2205,-9.987513 6.26622,-9.987513 -5.26064,0 -13.37377,6.557804 -26.75634,21.627002 -2.60794,2.93661 -4.76112,1.68746 -2.94396,-1.70792 0.76112,-1.422162 1.0017,-2.585749 0.53464,-2.585749 -0.46707,0 4.61182,-5.404129 11.28642,-12.009174 6.67459,-6.605047 12.13563,-12.688902 12.13563,-13.519678 0,-1.96613 4.08308,-5.041216 6.76565,-5.09541 1.15446,-0.02332 4.45446,-2.432308 7.33334,-5.353302 2.87889,-2.920993 5.85168,-5.320993 6.6062,-5.333333 0.75452,-0.0124 5.20854,-3.893548 9.89785,-8.624908 4.68931,-4.73136 8.93111,-8.352108 9.42623,-8.046107 0.49512,0.306 2.05177,-0.51648 3.45924,-1.827734 3.72474,-3.47013 8.16829,-4.341216 9.14616,-1.792959 0.47285,1.232241 -0.10574,2.61344 -1.39768,3.336439 -1.21251,0.678552 -3.19675,2.216029 -4.40944,3.416616 -1.2127,1.200586 -3.99499,3.33495 -6.18288,4.743032 -3.75322,2.415481 -9.31803,7.363168 -20.36496,18.106518 -2.63919,2.566667 -4.2891,3.823962 -3.66644,2.79399 0.6735,-1.114104 0.62573,-1.559738 -0.11787,-1.100127 -0.68752,0.424904 -1.12301,3.817609 -0.96777,7.539345 0.15518,3.721736 -0.24774,6.766792 -0.89544,6.766792 -0.64771,0 -2.67764,1.5 -4.51098,3.333334 -1.83333,1.833333 -3.96061,3.333333 -4.72728,3.333333 -0.76666,0 -1.39393,0.540735 -1.39393,1.201632 0,0.660897 -2.1,2.440663 -4.66667,3.955033 -2.56666,1.514371 -4.66666,3.373636 -4.66666,4.131702 0,2.087937 5.68665,1.649132 9.03665,-0.697306 1.62984,-1.141582 2.97253,-1.591582 2.98376,-1 0.0107,0.591583 0.46123,0.475606 1,-0.257728 0.53877,-0.733333 3.97959,-3.375776 7.64625,-5.872096 3.66667,-2.496318 8.85998,-6.612724 11.54067,-9.147566 2.68071,-2.534842 6.28071,-5.341451 8,-6.236908 1.71931,-0.895459 2.976,-2.329054 2.79267,-3.185767 -0.18334,-0.856715 0.50666,-1.557663 1.53333,-1.557663 1.02667,0 3.92805,-2.061384 6.44752,-4.580852 4.3036,-4.303601 8.98679,-5.516208 9.96543,-2.580321 0.23329,0.699875 -2.83434,4.247451 -6.81694,7.883503 -9.48308,8.657885 -11.11004,9.944337 -12.57648,9.944337 -1.5925,0 -4.80142,3.862547 -3.93158,4.732395 0.36737,0.367374 2.85288,0.750093 5.52333,0.850485 2.67047,0.1004 4.85539,0.520257 4.85539,0.933032 0,0.412773 -3.93604,4.716929 -8.74675,9.564789 l -8.74676,8.814291 4.41343,-0.53835 c 2.42737,-0.29609 5.67133,-1.14957 7.20878,-1.89662 4.37352,-2.1251 14.42871,-0.83769 14.95888,1.91525 0.38332,1.99046 -0.78698,2.2914 -8.91113,2.2914 -5.14383,0 -9.6618,0.5006 -10.03993,1.11244 -0.37815,0.61185 -4.34883,1.24457 -8.82375,1.40606 l -8.13621,0.2936 z m -8.30009,-31.853409 c 0.49049,0.49049 0.8918,0.191798 0.8918,-0.663757 0,-2.440189 -2.01967,-1.831573 -4.79335,1.444444 -2.53793,2.997577 -2.53775,2.998113 0.23488,0.663757 1.52617,-1.284933 3.17617,-1.934933 3.66667,-1.444444 z M 163.80809,103.31743 c -2.54305,-0.91925 -2.5287,-1.01109 0.40322,-2.58021 4.33693,-2.321057 7.14061,-1.440963 4.36696,1.37082 -1.37862,1.39757 -3.06604,1.82539 -4.77018,1.20939 z m 7.34688,-14.624428 c -1.58464,-2.960917 3.29991,-8.080864 7.70932,-8.080864 3.89314,0 3.71344,0.604141 -1.76088,5.920433 -4.24009,4.117688 -4.7934,4.318647 -5.94844,2.160431 z"
     style="fill:#000000;stroke-width:1.33333337" />
</svg>
